<?xml version="1.0" encoding="utf-8"?>
<!-- Designed by Vexels.com - 2016 All Rights Reserved - https://vexels.com/terms-and-conditions/  -->

<svg version="1.1" id="Capa_1" xmlns="http://www.w3.org/2000/svg" xmlns:xlink="http://www.w3.org/1999/xlink" x="0px" y="0px"
	 width="1200px" height="1200px" viewBox="0 0 1200 1200" enable-background="new 0 0 1200 1200" xml:space="preserve">
<g>
	<g>
		<path fill="#451307" d="M1073.02,316.967c2.026-17.12-13.008,0-13.008,0c-10.289-5.48-34.945-3.429-45.181-2.039
			c-10.29,1.361-29.467,2.039-29.467,2.039s0,0-4.787-1.359c-4.801-1.387-45.192-9.571-67.077-14.388
			c-21.906-4.801-64.374-15.064-81.521-21.918c-17.09-6.828-21.893-7.521-25.308-5.469c-3.447,2.044-9.594-1.359-16.438-4.118
			c-6.838-2.729-7.53,1.386-11.628-2.053c-4.124-3.428-2.065-6.823-10.958-6.823c-8.917,0-13.704-4.121-24.638-16.443
			c-10.988-12.321-26.739-33.54-35.629-42.449c-8.89-8.898-12.331-6.166-19.856-4.111c-7.501,2.053-10.934,0-21.882-5.478
			c-10.963-5.484-24.681-8.219-24.681-8.219l1.397-6.171c28.065-27.369,16.415-35.584,16.415-35.584
			c26.007-48.628,9.608-67.108,9.608-67.108c-17.145-28.747-68.501-27.402-86.973-22.602c-18.499,4.804-28.745,51.361-28.745,51.361
			c-20.558-14.388-13.03,43.813-13.03,43.813c0.683,7.537,3.438,32.852-2.745,33.542c-6.163,0.696-26.021,3.431-39.02,3.431
			c-13.008,0-29.428,6.854-38.346,10.957c-8.905,4.107-17.12,1.375-23.281,4.786c-6.171,3.415-30.788,26.707-38.996,33.563
			c-8.245,6.823-15.761,19.161-19.199,23.934c-3.402,4.812-16.43,20.555-25.317,28.091c-8.927,7.516-34.916,69.159-36.974,71.212
			c-2.082,2.063-24.665,39.025-32.187,52.732c-7.559,13.679-36.943,92.41-39.697,99.279c-2.746,6.839,4.78,17.116,1.349,19.171
			c-3.443,2.022-9.599,19.159-11.654,21.893c-2.021,2.751-21.887,24.654-21.887,24.654c-17.776,12.995-11.645,30.812-11.645,30.812
			l-2.717,26.704c-1.401,13.014,12.307,14.378,12.307,14.378c17.112,20.547,10.964,4.116,10.964,4.116l8.891-35.613
			c1.367-12.317,11.647-7.53,11.647-7.53c-4.143,2.76-5.505,17.138-5.505,17.138c0,19.838,11.004,3.396,11.004,3.396
			c0-4.787,8.195-16.422,8.195-16.422c14.377-13.001,13.697-35.603,13.697-35.603c0-6.837,0.677-19.162,0.677-19.162l5.482-2.746
			c-1.395-3.438,6.848-19.171,6.848-19.171c12.312-2.729,13.684-18.493,17.758-28.759c4.138-10.28,37.693-67.788,42.481-75.983
			c4.78-8.222,39.721-49.998,39.721-49.998c25.983-15.736,40.401-43.827,40.401-43.827s0.677,10.957,0.677,17.103
			c0,6.174-2.077,17.815-8.224,25.362c-6.167,7.531-6.869,7.531-4.802,22.599c2.079,15.038-2.067,15.736-6.145,27.358
			c-4.085,11.657,2.73,23.277-6.146,28.77c-8.927,5.494-10.29,19.178,0,26.017c10.227,6.84,4.077,15.052-6.17,21.918
			c-10.286,6.872-19.177,28.747-24.671,30.106c-5.494,1.386-10.258,4.812-12.988,11.651c-2.73,6.852-3.436,6.852-9.616,14.371
			c-6.132,7.555-15.059,27.402-15.059,27.402c-4.782-11.627-20.554-2.052-20.554-2.052c-19.16,6.839-6.164,41.759-6.164,41.759
			l-25.313,35.591c-25.318,10.964-37.653,73.949-37.653,73.949c-1.342,76.012,79.438,26.693,79.438,26.693
			c10.245-12.305,76.665-52.011,76.665-52.011c41.787-23.292,57.512-19.171,57.512-19.171
			c26.001,4.088,19.854,104.075,19.854,104.075c-6.837,23.948-8.237,59.547-10.946,68.452c-2.746,8.909,3.436,2.068-17.134,30.814
			c-20.561,28.757-21.207,73.267-25.313,90.386c-4.123,17.103-17.136,45.88-17.136,45.88
			c-10.282,12.992-19.854,39.701-19.854,39.701c-13.007,13.691-15.043,37.649-15.043,37.649
			c-6.863,38.347,52.718,12.32,52.718,12.32c8.883-9.56,53.369-30.804,53.369-30.804c30.142-41.077-23.911-50.662-23.911-50.662
			c0.66-7.533,17.1-21.923,19.155-34.904c2.013-13.023,8.911-16.457,17.107-26.053c8.204-9.56,17.79-24.642,25.314-36.269
			c7.584-11.633,16.458-44.521,22.607-52.715c6.163-8.224,13.704-26.027,17.097-40.41c3.458-14.374,0.715-13.003,7.565-25.323
			c6.855-12.331,1.359-19.177,10.931-34.919c9.618-15.743,13.03-23.991,26.723-43.828c13.678-19.849,10.266-54.091,10.266-81.478
			c0-27.386,0.699-66.426,0.699-66.426c4.085-1.344,11.618-4.078,9.555-14.373c-2.009-10.263,10.282-32.168,10.282-32.168
			s-17.791-1.376-1.359-2.751c16.42-1.344,12.317-24.652,15.053-35.585c2.729-10.979,8.253-45.864,11.648-65.762
			c3.428-19.852,4.787-28.746,15.058-47.914c10.289-19.161,30.828-72.573,30.828-72.573c13.679-9.583,60.919,19.856,91.046,28.064
			c30.137,8.245,77.348,8.245,107.507,8.245c30.11,0,89.001-5.483,89.001-5.483l6.87-5.505c24.638,12.348,36.275,2.084,41.74-1.345
			c5.467-3.441,18.493-3.441,18.493-3.441c5.497,34.223,10.962-8.208,10.962-8.208c26.01,27.387,10.275-10.949,10.275-10.949
			c0.948-0.24,1.878-0.498,2.703-0.724C1103.944,321.469,1073.02,316.967,1073.02,316.967z"/>
		<path fill="#451307" d="M185.213,1003.94c-40.361,0-73.04,32.695-73.04,73.024c0,40.352,32.679,73.036,73.04,73.036
			c40.354,0,73.028-32.685,73.028-73.036C258.241,1036.635,225.568,1003.94,185.213,1003.94z"/>
	</g>
</g>
</svg>
